<svg width="24" height="25" viewBox="0 0 24 25" fill="none" xmlns="http://www.w3.org/2000/svg">
<path d="M8.51009 20.4996H8.43009C6.81845 20.4856 5.23012 20.1166 3.78009 19.4194C3.51336 19.2953 3.29375 19.0898 3.1534 18.833C3.01304 18.5762 2.95932 18.2817 3.00009 17.9924C3.04444 17.7013 3.18048 17.4314 3.3888 17.2214C3.59712 17.0114 3.86706 16.872 4.16009 16.8231C5.0587 16.7043 5.92318 16.4041 6.70009 15.9411C5.35125 14.8961 4.31284 13.5089 3.69491 11.9265C3.07698 10.3442 2.90254 8.62562 3.19009 6.95301C3.22908 6.68808 3.34406 6.43982 3.52134 6.23779C3.69862 6.03575 3.93075 5.88845 4.19009 5.8134C4.44241 5.73487 4.71244 5.73152 4.96666 5.80375C5.22088 5.87598 5.4481 6.02061 5.62009 6.21969C6.20409 6.97856 6.93799 7.61157 7.777 8.08011C8.61601 8.54864 9.54255 8.84288 10.5001 8.94487C10.5458 7.77736 11.0521 6.67427 11.9101 5.87285C12.3385 5.46633 12.8443 5.14837 13.3979 4.93749C13.9516 4.7266 14.542 4.62702 15.1349 4.64455C15.7278 4.66207 16.3112 4.79635 16.8512 5.03956C17.3912 5.28276 17.8769 5.63004 18.2801 6.06114C18.3851 6.15317 18.5156 6.21182 18.6547 6.22949C18.7938 6.24716 18.935 6.22303 19.0601 6.16024C19.2985 6.0488 19.564 6.00685 19.8256 6.03928C20.0872 6.07172 20.3341 6.1772 20.5374 6.34341C20.7408 6.50963 20.8923 6.72973 20.9742 6.97804C21.0561 7.22635 21.0651 7.49262 21.0001 7.74579C20.7694 8.68733 20.3324 9.56699 19.7201 10.3223C19.5851 13.1414 18.331 15.7932 16.231 17.6997C14.1311 19.6062 11.3558 20.6126 8.51009 20.4996ZM8.51009 18.5176H8.59009C9.75276 18.5573 10.9118 18.3678 12 17.9602C13.0882 17.5526 14.084 16.935 14.9295 16.1432C15.7751 15.3513 16.4536 14.4011 16.9257 13.3474C17.3979 12.2938 17.6543 11.1578 17.6801 10.0052C17.6966 9.68933 17.828 9.39009 18.0501 9.16288C18.294 8.85691 18.502 8.52445 18.6701 8.17191C18.3098 8.17259 17.9535 8.09791 17.6244 7.95276C17.2952 7.80761 17.0007 7.59526 16.7601 7.32958C16.5287 7.10221 16.2538 6.92286 15.9516 6.80205C15.6494 6.68124 15.3259 6.62138 15.0001 6.62599C14.671 6.61756 14.3435 6.67362 14.0363 6.79096C13.7291 6.9083 13.4483 7.08461 13.2101 7.30976C12.8887 7.61201 12.653 7.99261 12.5266 8.41347C12.4003 8.83434 12.3877 9.28071 12.4901 9.70791L12.7501 10.8376L11.5801 10.9169C10.3812 11.0138 9.17535 10.8513 8.04611 10.4406C6.91686 10.0299 5.89118 9.38095 5.04009 8.53857C5.00359 9.84308 5.33289 11.1321 5.99139 12.2622C6.64988 13.3924 7.61176 14.3194 8.77009 14.9402L9.72009 15.4754L9.09009 16.3672C8.40878 17.2527 7.47528 17.9154 6.41009 18.2699C7.0934 18.4396 7.79566 18.5229 8.50009 18.5176H8.51009Z" fill="#6E7191"/>
</svg>
